<svg width="280" height="70" viewBox="0 0 280 70" fill="none" xmlns="http://www.w3.org/2000/svg">
<rect width="280" height="70" fill="white"/>
<path d="M63.7134 39.7378C61.5979 39.7378 59.9526 39.1743 58.7773 38.0472C57.6123 36.9099 57.0298 35.3012 57.0298 33.2213C57.0298 31.0696 57.5714 29.42 58.6547 28.2724C59.738 27.1146 61.2862 26.5357 63.2995 26.5357C65.2207 26.5357 66.6975 27.0378 67.7296 28.0419C68.7823 29.0358 69.3086 30.4753 69.3086 32.3606V34.3125H61.46C61.4906 35.0297 61.7512 35.5881 62.2417 35.9877C62.7323 36.3976 63.4017 36.6025 64.2499 36.6025C65.0164 36.6025 65.7215 36.5308 66.3653 36.3873C67.0194 36.2336 67.7245 35.9826 68.4808 35.6342V38.8003C67.7961 39.1486 67.0858 39.3946 66.35 39.538C65.6142 39.6712 64.7404 39.7378 63.7287 39.7378H63.7134ZM63.4528 29.5327C62.9418 29.5327 62.5075 29.6966 62.1498 30.0245C61.8023 30.3524 61.5979 30.8647 61.5366 31.5614H65.3076C65.2974 30.9467 65.1237 30.4549 64.7864 30.086C64.4594 29.7171 64.0148 29.5327 63.4528 29.5327Z" fill="#8E44AD"/>
<path d="M83.7951 26.8279V28.9489L82.0475 29.5944C82.2826 30.0349 82.4001 30.5421 82.4001 31.1159C82.4001 32.4889 81.9198 33.5545 80.9592 34.3127C79.9985 35.0709 78.5627 35.45 76.6516 35.45C76.1815 35.45 75.8085 35.4193 75.5326 35.3578C75.4304 35.5525 75.3793 35.7369 75.3793 35.9111C75.3793 36.1262 75.553 36.2953 75.9005 36.4182C76.248 36.531 76.7078 36.5873 77.2801 36.5873H79.3956C82.2468 36.5873 83.6725 37.7912 83.6725 40.199C83.6725 41.7564 83.0082 42.9655 81.6796 43.8261C80.3613 44.6868 78.5065 45.1172 76.1151 45.1172C74.3063 45.1172 72.9164 44.8149 71.9455 44.2104C70.9747 43.6059 70.4893 42.7401 70.4893 41.613C70.4893 40.0863 71.4346 39.1027 73.3252 38.6621C72.9368 38.4982 72.5945 38.2318 72.2981 37.8629C72.012 37.4941 71.8689 37.1303 71.8689 36.7717C71.8689 36.3721 71.9762 36.0238 72.1908 35.7266C72.4054 35.4193 72.8602 35.0555 73.5551 34.6354C72.9011 34.3383 72.3799 33.8823 71.9915 33.2676C71.6134 32.6426 71.4243 31.8844 71.4243 30.993C71.4243 29.6097 71.8944 28.5339 72.8346 27.7654C73.7748 26.997 75.1238 26.6128 76.8816 26.6128C77.1166 26.6128 77.5152 26.6384 78.0773 26.6896C78.6393 26.7408 79.0583 26.7921 79.3343 26.8433H83.7644L83.7951 26.8279ZM74.2143 41.1673C74.2143 41.5259 74.4084 41.8128 74.7968 42.028C75.1851 42.2534 75.7063 42.3661 76.3604 42.3661C77.4232 42.3661 78.2714 42.2329 78.905 41.9665C79.5489 41.7001 79.8708 41.3568 79.8708 40.9368C79.8708 40.5986 79.6766 40.3579 79.2883 40.2144C78.8999 40.0812 78.343 40.0146 77.6174 40.0146H75.9005C75.4304 40.0146 75.0318 40.1222 74.7048 40.3374C74.388 40.5628 74.2296 40.8394 74.2296 41.1673H74.2143ZM75.5939 31.0083C75.5939 32.3096 76.0487 32.9602 76.9582 32.9602C77.3772 32.9602 77.6991 32.8014 77.924 32.4838C78.159 32.1661 78.2765 31.6846 78.2765 31.0391C78.2765 29.7173 77.8371 29.0564 76.9582 29.0564C76.0487 29.0564 75.5939 29.7071 75.5939 31.0083Z" fill="#8E44AD"/>
<path d="M90.0803 39.5841H85.6961V26.8278H90.0803V39.5841ZM85.6348 23.6003C85.6348 22.9445 85.8187 22.4527 86.1866 22.1249C86.5545 21.8072 87.1473 21.6484 87.9648 21.6484C88.7824 21.6484 89.3751 21.8123 89.743 22.1402C90.1211 22.4681 90.3102 22.9548 90.3102 23.6003C90.3102 24.8913 89.5284 25.5368 87.9648 25.5368C86.4115 25.5368 85.6348 24.8913 85.6348 23.6003Z" fill="#8E44AD"/>
<path d="M99.4308 36.3567C100.023 36.3567 100.729 36.2081 101.546 35.911V39.1231C100.953 39.3792 100.386 39.5585 99.8447 39.661C99.3132 39.7737 98.6898 39.8301 97.9745 39.8301C96.5029 39.8301 95.44 39.4715 94.786 38.7542C94.1319 38.0268 93.8049 36.9099 93.8049 35.4038V30.1475H92.272V28.3647L94.2188 26.9815L95.3532 24.3073H98.2351V26.8586H101.362V30.1629H98.2351V35.1271C98.2351 35.9571 98.6336 36.372 99.4308 36.372V36.3567Z" fill="#8E44AD"/>
<path d="M111.387 26.5205C110.335 26.5205 109.512 26.9559 108.919 27.8268C108.327 28.6875 108.03 29.8812 108.03 31.4078C108.03 34.5739 109.231 36.1569 111.633 36.1569C112.358 36.1569 113.063 36.0544 113.748 35.8495C114.433 35.6446 115.118 35.3987 115.802 35.1118V38.8772C114.433 39.4817 112.885 39.784 111.158 39.784C108.684 39.784 106.784 39.0617 105.455 37.617C104.137 36.1723 103.478 34.0923 103.478 31.3771C103.478 29.6763 103.794 28.1803 104.428 26.8893C105.072 25.5983 105.992 24.6096 107.187 23.9231C108.393 23.2264 109.809 22.878 111.433 22.878C113.212 22.878 114.908 23.2622 116.523 24.0307L115.158 27.5348C114.556 27.2479 113.947 27.0072 113.334 26.8125C112.731 26.6178 112.082 26.5205 111.387 26.5205Z" fill="#8E44AD"/>
<path d="M127.023 39.5841L126.18 37.8935H126.088C125.496 38.6313 124.893 39.1333 124.28 39.3997C123.666 39.6661 122.874 39.7993 121.904 39.7993C120.708 39.7993 119.763 39.4407 119.068 38.7235C118.383 38.0063 118.041 36.9919 118.041 35.6804C118.041 34.3177 118.511 33.3084 119.451 32.6527C120.391 31.9867 121.755 31.6127 123.544 31.5307L125.659 31.4693V31.2848C125.659 30.2295 125.143 29.7018 124.111 29.7018C123.181 29.7018 122.001 30.0194 120.57 30.6547L119.298 27.7499C120.779 26.9815 122.65 26.5973 124.908 26.5973C126.543 26.5973 127.805 27.002 128.694 27.8114C129.594 28.6209 130.043 29.753 130.043 31.208V39.5688H127.008L127.023 39.5841ZM123.774 36.6948C124.305 36.6948 124.76 36.5257 125.138 36.1876C125.516 35.8495 125.705 35.4089 125.705 34.8658V33.8822L124.693 33.9283C123.252 33.9796 122.532 34.5123 122.532 35.5267C122.532 36.3054 122.946 36.6948 123.774 36.6948Z" fill="#8E44AD"/>
<path d="M140.666 26.5204C141.044 26.5204 141.407 26.5512 141.754 26.6127L142 26.6588L141.601 30.8084C141.244 30.7162 140.748 30.6701 140.114 30.6701C139.154 30.6701 138.459 30.8904 138.029 31.331C137.6 31.7716 137.386 32.4017 137.386 33.2214V39.492H133.001V26.7356H136.267L136.956 28.7797H137.171C137.539 28.1035 138.05 27.5604 138.704 27.1506C139.368 26.7305 140.033 26.5204 140.697 26.5204H140.666Z" fill="#8E44AD"/>
<path d="M57.6179 54.7695C58.3537 53.9703 70.939 39.2467 70.939 39.2467C70.9544 39.2006 70.8317 39.0008 70.6938 38.8317C70.4945 38.5858 70.4025 38.509 70.3105 38.5243C70.2492 38.5397 67.7506 39.9383 64.7613 41.6289C61.7721 43.3195 59.3041 44.7027 59.2735 44.7027C59.2428 44.7027 59.1048 44.5336 58.9515 44.3338C58.3384 43.5654 56.4988 41.1063 55.7324 39.8768C49.9072 32.4996 43.4689 25.8909 37.3372 20.9728C34.7772 18.8211 32.1406 16.9768 29.6879 15.5936C28.7222 15.025 28.5842 14.9481 28.4922 15.025C28.3696 15.1018 27.971 15.7166 28.0017 15.7781C28.017 15.8088 28.4462 16.2238 28.9521 16.6848C30.2551 17.8683 34.5166 22.1409 35.8196 23.5702C43.9135 32.4843 49.9686 41.552 56.0543 53.5399L56.7901 55H57.0814C57.3573 55 57.3879 54.9846 57.6179 54.7387V54.7695Z" fill="#8E44AD"/>
<path d="M57.4641 54.7694C57.5561 54.6618 60.5913 51.1115 64.2397 46.8696C67.8727 42.6431 70.8619 39.139 70.8619 39.1083C70.8619 39.0775 70.7699 38.9238 70.6473 38.7701C70.494 38.5857 70.402 38.5089 70.3254 38.5242C70.2641 38.5396 67.7654 39.9228 64.7762 41.6134C61.787 43.304 59.319 44.6872 59.273 44.6872C59.227 44.6872 58.8284 44.1647 58.3685 43.5346C56.8969 41.5058 54.8735 38.8931 53.1719 36.8336C46.4577 28.7034 39.4369 22.0947 32.6306 17.4686C31.159 16.4696 28.829 15.0249 28.6604 15.0249C28.6297 15.0249 28.4917 15.1632 28.3691 15.3476L28.1392 15.6704L28.4151 15.9163C30.5152 17.8835 31.2817 18.6212 32.4927 19.82C41.1231 28.4728 47.822 37.6482 54.107 49.4824C54.9961 51.1423 56.805 54.7233 56.8203 54.8462C56.8356 54.9231 56.8969 54.9538 57.0809 54.9538C57.3108 54.9692 57.3415 54.9538 57.4794 54.7694H57.4641Z" fill="#8E44AD"/>
</svg>
